HIERARCHY
ROOT root
{
	OFFSET 0.000000 0.000000 0.000000
	CHANNELS 6 Xposition Yposition Zposition Zrotation Yrotation Xrotation
	JOINT lhip
	{
		OFFSET 0.058581 -0.082280 -0.017664
		CHANNELS 3 Zrotation Yrotation Xrotation
		JOINT lknee
		{
			OFFSET 0.043451 -0.386469 0.008037
			CHANNELS 3 Zrotation Yrotation Xrotation
			JOINT lankle
			{
				OFFSET -0.014790 -0.426874 -0.037428
				CHANNELS 3 Zrotation Yrotation Xrotation
				JOINT ltoe
				{
					OFFSET 0.041054 -0.060286 0.122042
					CHANNELS 3 Zrotation Yrotation Xrotation
					End Site
					{
						OFFSET 0.000000 0.000000 0.000000
					}
				}
			}
		}
	}
	JOINT rhip
	{
		OFFSET -0.060310 -0.090513 -0.013543
		CHANNELS 3 Zrotation Yrotation Xrotation
		JOINT rknee
		{
			OFFSET -0.043257 -0.383688 -0.004843
			CHANNELS 3 Zrotation Yrotation Xrotation
			JOINT rankle
			{
				OFFSET 0.019056 -0.420046 -0.034562
				CHANNELS 3 Zrotation Yrotation Xrotation
				JOINT rtoe
				{
					OFFSET -0.034840 -0.062106 0.130323
					CHANNELS 3 Zrotation Yrotation Xrotation
					End Site
					{
						OFFSET 0.000000 0.000000 0.000000
					}
				}
			}
		}
	}
	JOINT lowerback
	{
		OFFSET 0.004439 0.124404 -0.038385
		CHANNELS 3 Zrotation Yrotation Xrotation
		JOINT upperback
		{
			OFFSET 0.004488 0.137956 0.026820
			CHANNELS 3 Zrotation Yrotation Xrotation
			JOINT chest
			{
				OFFSET -0.002265 0.056032 0.002855
				CHANNELS 3 Zrotation Yrotation Xrotation
				JOINT lowerneck
				{
					OFFSET -0.013390 0.211636 -0.033468
					CHANNELS 3 Zrotation Yrotation Xrotation
					JOINT upperneck
					{
						OFFSET 0.010113 0.088937 0.050410
						CHANNELS 3 Zrotation Yrotation Xrotation
						End Site
						{
							OFFSET 0.000000 0.000000 0.000000
						}
					}
				}
				JOINT lclavicle
				{
					OFFSET 0.071702 0.114000 -0.018898
					CHANNELS 3 Zrotation Yrotation Xrotation
					JOINT lshoulder
					{
						OFFSET 0.122921 0.045205 -0.019046
						CHANNELS 3 Zrotation Yrotation Xrotation
						JOINT lelbow
						{
							OFFSET 0.255332 -0.015649 -0.022946
							CHANNELS 3 Zrotation Yrotation Xrotation
							JOINT lwrist
							{
								OFFSET 0.265709 0.012698 -0.007375
								CHANNELS 3 Zrotation Yrotation Xrotation
								End Site
								{
									OFFSET 0.000000 0.000000 0.000000
								}
							}
						}
					}
				}
				JOINT rclavicle
				{
					OFFSET -0.082954 0.112472 -0.023707
					CHANNELS 3 Zrotation Yrotation Xrotation
					JOINT rshoulder
					{
						OFFSET -0.113228 0.046853 -0.008472
						CHANNELS 3 Zrotation Yrotation Xrotation
						JOINT relbow
						{
							OFFSET -0.260127 -0.014369 -0.031269
							CHANNELS 3 Zrotation Yrotation Xrotation
							JOINT rwrist
							{
								OFFSET -0.269108 0.006794 -0.006027
								CHANNELS 3 Zrotation Yrotation Xrotation
								End Site
								{
									OFFSET 0.000000 0.000000 0.000000
								}
							}
						}
					}
				}
			}
		}
	}
}
MOTION
Frames: 14
Frame Time: 0.033333
0.280243 1.014619 0.856566 2.739230 -0.852853 86.835333 12.069897 8.693877 -29.937732 -15.909479 7.122068 68.693456 1.772288 5.989043 -32.044346 0.000000 -0.000000 0.000000 -7.834560 -4.666817 -30.601900 6.529401 -3.177242 68.838484 -1.433699 -3.195006 -37.727442 0.000000 -0.000000 0.000000 -2.289350 -0.363243 28.803441 2.245693 -1.832913 -1.911796 -1.252832 -2.362266 3.016761 4.219622 2.795864 -14.872154 -1.766507 -8.870530 7.957651 -29.917939 1.799402 -1.369944 -41.989188 -4.769078 0.805759 14.090107 -32.693790 0.115438 4.335488 -7.358689 -0.625507 30.169426 0.439377 -1.588593 39.082450 3.250750 5.110919 -18.235789 33.043130 -2.580634 2.257984 7.384788 7.357413 
0.282555 1.016154 0.832021 2.469060 -0.892717 86.341693 12.622559 9.036976 -32.587422 -16.402964 8.316709 74.578180 1.902567 5.190971 -32.311846 0.000000 -0.000000 0.000000 -8.824604 -4.784456 -33.601776 6.702307 -4.250778 75.074401 -0.833831 -2.402913 -38.147530 0.000000 -0.000000 0.000000 -2.119081 -0.284023 30.869277 2.399748 -1.614727 -2.319947 -1.438589 -2.487695 2.573033 3.754048 2.327070 -15.207276 -1.259207 -9.353525 6.055183 -30.160263 1.458477 -1.170725 -40.229825 -4.192049 0.407837 14.058809 -33.385045 -0.786751 5.155699 -7.218884 -0.747939 30.059599 0.541522 -1.730661 37.332872 2.664231 4.206115 -18.389944 33.531707 -3.482068 1.525982 7.189295 6.775421 
0.285002 1.017624 0.805314 2.289491 -0.632257 85.868619 13.100517 9.372656 -35.311627 -16.835987 8.787412 80.289596 1.837042 5.155243 -33.944840 0.000000 -0.000000 0.000000 -9.310645 -4.392238 -36.526955 6.971077 -4.851684 81.067338 -0.270591 -1.665256 -38.541405 0.000000 -0.000000 0.000000 -1.984848 -0.550417 32.862096 2.601998 -1.409002 -2.801371 -1.355368 -2.314385 2.390879 3.491894 1.887443 -15.803913 -1.062588 -9.580090 4.596089 -30.144689 0.976165 -1.093937 -39.224526 -3.465980 -0.092904 14.552929 -34.092657 -1.045915 4.468115 -7.482350 -0.861516 29.491101 1.069203 -1.423473 35.975633 2.277290 3.005997 -18.897988 33.515635 -4.209487 2.029382 7.056391 6.839367 
0.287944 1.019435 0.769821 2.135896 -0.600088 85.204228 13.474721 9.663132 -39.002610 -16.766587 9.992013 87.931612 2.202735 4.962917 -35.150948 0.000000 -0.000000 0.000000 -10.099173 -4.304382 -40.191173 7.610633 -5.189239 88.605465 0.103337 -1.022064 -39.081777 0.000000 -0.000000 0.000000 -1.903400 -0.635559 35.247452 2.752390 -1.126982 -3.486319 -1.452535 -2.410767 2.260476 3.453585 0.844701 -16.653426 -0.561690 -10.252050 3.221301 -29.979858 0.502642 -0.883010 -37.648020 -2.839329 -0.713721 14.447308 -34.689083 -1.030262 4.428707 -7.659113 -0.510022 28.959121 1.395150 -1.600092 34.706808 1.576150 1.829916 -19.825399 33.596939 -5.476102 2.407740 7.089671 6.668563 
0.289578 1.020316 0.748046 2.129347 -0.231543 84.715631 14.226851 9.807405 -41.226087 -16.591053 10.921555 92.597074 1.516752 4.592099 -35.713914 0.000000 -0.000000 0.000000 -9.918557 -3.437828 -42.170274 7.805964 -5.251789 92.821525 0.595917 -1.414866 -39.426452 0.000000 -0.000000 0.000000 -1.746397 -0.777044 36.489701 3.060989 -0.984744 -3.654238 -1.390732 -2.388275 2.270989 3.639208 0.634472 -16.787105 -0.636684 -10.297003 2.706255 -30.042920 0.134202 -0.958307 -36.613250 -2.364636 -0.813940 14.247417 -34.986738 -1.347764 5.444985 -7.975504 -0.295665 28.631232 1.686911 -1.782486 33.604188 1.533493 1.218980 -19.836501 33.108917 -6.083761 1.739225 6.875694 6.525791 
0.292512 1.021909 0.717554 1.713676 -0.314354 83.942572 15.124252 10.293758 -43.648429 -16.992098 12.537264 98.184500 1.524537 3.958030 -36.185408 0.000000 -0.000000 0.000000 -11.148032 -3.658125 -45.253481 8.498870 -6.004255 98.739197 0.863296 -0.232191 -39.272356 0.000000 -0.000000 0.000000 -1.974666 -0.809016 38.481041 3.183044 -0.756687 -4.185917 -1.476121 -2.378962 2.147068 3.722509 0.250409 -17.026390 -0.200091 -10.940824 2.247360 -29.841459 -0.051599 -1.115475 -35.391329 -1.732756 -1.213002 14.105358 -35.566281 -1.739552 5.327368 -7.801756 0.363241 28.175185 1.919664 -1.748987 32.658639 1.479125 0.167403 -20.494662 33.405965 -7.631739 2.406733 6.946819 6.463212 
0.295039 1.021201 0.686331 1.469329 0.181514 82.934171 16.152266 11.624236 -46.154086 -16.252526 12.592750 104.623555 -0.019300 0.487499 -36.306541 0.000000 -0.000000 0.000000 -11.956753 -4.331971 -47.704153 7.948141 -6.754964 104.443734 0.244131 2.028502 -38.969325 0.000000 -0.000000 0.000000 -1.502645 -1.102140 40.599742 2.679993 -1.361575 -4.621255 -0.803568 -2.150612 1.473441 3.351490 -0.029399 -16.767790 1.119902 -10.882478 2.638103 -29.372143 -1.512648 -2.961376 -34.876583 2.079982 -3.811877 13.341423 -37.023816 -1.949516 -0.699767 -8.015128 4.411693 26.995939 4.106486 -1.302303 31.776060 -0.505695 -3.953412 -18.437264 34.416083 -8.611147 -0.959451 7.732506 9.626446 
0.297560 1.020952 0.653353 1.377399 -0.151204 82.029468 17.343712 12.534037 -48.574906 -16.726748 14.492602 110.009624 -0.306580 -1.174930 -36.107019 0.000000 -0.000000 0.000000 -13.896097 -5.785405 -50.490242 8.517128 -7.472181 110.163930 0.725675 4.538565 -38.872260 0.000000 -0.000000 0.000000 -1.899301 -0.761864 42.350988 2.855194 -1.372035 -4.964807 -0.964361 -2.422399 1.360049 3.713725 0.039239 -17.211356 1.448507 -12.307982 2.576865 -28.788261 -1.541983 -3.110505 -34.069450 2.450270 -4.148051 13.579081 -37.740789 -2.188803 -0.170553 -8.242004 4.843741 26.783766 3.782046 -1.903640 31.040969 -0.504991 -4.991379 -18.332318 35.012519 -8.903151 -0.048421 7.216827 9.252195 
0.298666 1.020668 0.621182 1.190170 0.526817 80.932987 19.156682 13.762939 -50.823002 -17.501318 15.828073 115.388060 0.005157 -1.728010 -36.439672 0.000000 -0.000000 0.000000 -15.312950 -6.612739 -52.672816 9.089943 -9.407384 115.214911 1.037636 5.973396 -38.984819 0.000000 -0.000000 0.000000 -1.516675 -0.985922 44.793749 3.011611 -1.157147 -6.035908 -1.221158 -2.258845 1.171111 3.755752 -0.644381 -17.743052 2.019138 -14.040328 2.286334 -28.545225 -1.830454 -2.888623 -33.192979 3.272539 -4.586999 13.857200 -38.323906 -1.916362 1.312311 -8.947679 4.832259 26.827332 4.004525 -1.595769 30.409579 -1.360412 -6.397049 -19.201301 36.082728 -9.469064 0.235660 7.106422 9.230664 
0.302163 1.020438 0.580801 1.445987 0.324716 79.990217 19.898395 14.189467 -54.039384 -17.087438 17.377541 121.595090 -0.470647 -3.254084 -36.595032 0.000000 -0.000000 0.000000 -17.362579 -9.122856 -56.015899 9.219554 -9.883302 121.731780 0.742380 8.433291 -39.046745 0.000000 -0.000000 0.000000 -1.717352 -0.717037 46.296368 3.397704 -1.401881 -6.060110 -1.221818 -2.558973 1.112283 4.235266 -0.885333 -17.801755 2.226927 -15.190740 1.915671 -28.512488 -2.212126 -3.037838 -32.264667 3.427294 -5.294637 14.031466 -38.185063 -3.030795 0.556305 -8.484816 5.528049 26.969047 3.899595 -1.520244 29.208198 -1.380464 -7.666342 -19.744716 37.076088 -10.680573 -0.055651 6.444923 9.282351 
0.302878 1.019597 0.551349 1.123617 0.916993 78.444376 21.558183 15.151544 -55.494270 -17.428434 18.530393 126.172968 -0.625621 -3.755540 -36.475161 0.000000 -0.000000 0.000000 -18.452497 -9.043345 -57.757775 9.128791 -11.071936 126.376645 1.319586 9.502186 -38.796977 0.000000 -0.000000 0.000000 -1.742955 -0.849423 48.450725 3.587220 -1.079380 -6.551996 -1.225668 -2.419283 1.248532 4.562166 -1.111513 -17.943717 2.261332 -15.873081 2.025411 -28.408648 -2.564553 -3.192665 -31.512274 3.879505 -5.189602 14.000126 -38.228729 -3.335172 1.644211 -8.796534 4.864698 26.803056 4.488365 -1.720646 28.906290 -1.575152 -7.925402 -20.159193 36.872140 -11.619662 -0.753425 6.298007 9.740856 
0.306075 1.020382 0.521802 0.811294 0.112743 77.898021 21.608657 15.786356 -57.927887 -16.670309 19.896363 130.636291 -0.542371 -4.132000 -36.388323 0.000000 -0.000000 0.000000 -18.381595 -9.913526 -61.745816 10.072832 -9.974934 131.438028 1.277148 9.082811 -38.483865 0.000000 -0.000000 0.000000 -2.704956 -0.489747 49.010082 3.572036 -1.072609 -6.750437 -1.214831 -2.512603 1.351352 4.300638 -1.788223 -18.120363 2.904377 -16.680486 2.039229 -28.590093 -2.962465 -2.903319 -30.801833 4.118749 -5.455183 13.859179 -37.981164 -2.896872 3.886966 -8.639739 5.067089 26.785370 4.829565 -1.522044 28.070738 -1.247226 -8.159822 -18.927245 36.473853 -10.289942 -3.675594 6.679330 8.046586 
0.307927 1.018682 0.495316 1.081943 0.130487 76.392853 22.775076 16.378923 -59.064815 -16.594140 21.152456 134.606180 -0.757200 -4.854388 -36.340454 0.000000 -0.000000 0.000000 -20.245195 -10.362831 -63.097474 10.564331 -10.731672 135.408845 1.899768 10.633889 -37.973980 0.000000 -0.000000 0.000000 -2.877150 -0.646479 50.221766 3.784224 -1.113937 -6.756605 -1.459760 -2.602599 1.446505 4.450790 -1.784694 -18.330678 2.798222 -17.835625 2.763426 -28.255491 -3.264998 -2.917631 -30.102434 4.016114 -5.333924 12.460926 -37.093070 -3.254622 4.772776 -9.420924 6.310370 26.716285 4.900701 -1.906697 28.548003 -1.162377 -7.729987 -19.467840 36.198944 -11.717598 -2.454279 6.290310 9.071552 
0.309627 1.016930 0.470984 0.945567 0.071548 74.545957 24.042113 17.447466 -59.597884 -16.407278 21.775560 138.444652 -1.236315 -6.334846 -35.891946 0.000000 -0.000000 0.000000 -21.426867 -10.965289 -64.258001 10.625987 -11.090981 139.306353 2.002027 10.938904 -37.452453 0.000000 -0.000000 0.000000 -2.954684 -0.565042 51.594391 3.789452 -1.078585 -6.432548 -1.652883 -2.771465 1.254435 3.772350 -2.077131 -18.511743 3.358685 -18.984135 3.241915 -27.835238 -3.630351 -3.261583 -30.231888 4.295884 -5.557823 11.966983 -36.705306 -2.986246 5.692786 -9.743788 6.792717 26.307139 5.215975 -2.315575 29.398478 -1.534798 -7.978218 -19.193708 36.802067 -11.589491 -1.517279 6.459130 9.478975 
